<?xml version="1.0" encoding="UTF-8"?>
<svg id="Layer_1" xmlns="http://www.w3.org/2000/svg" version="1.1" viewBox="0 0 729.72 80.28">
  <!-- Generator: Adobe Illustrator 29.6.1, SVG Export Plug-In . SVG Version: 2.1.1 Build 9)  -->
  <defs>
    <style>
      .st0 {
        fill: #d11e0f;
      }
    </style>
  </defs>
  <circle class="st0" cx="66.07" cy="40.5" r="36.6"/>
  <g>
    <path d="M46.66,3.81C25.74,3.81,8.72,20.11,8.72,40.14c0,2.55.28,5.03.8,7.43.09.43.19.86.31,1.28,4.08,15.84,19.05,27.61,36.83,27.61s33.25-12.18,37.03-28.42c.59-2.54.9-5.19.9-7.9,0-20.03-17.01-36.33-37.93-36.33ZM46.45,75.46c-16.74,0-30.76-11.64-34.4-27.27,7.98-2.72,14.66-9.04,20.78-17.73,13.9,8.45,29.62,14.61,47.88,18.36-3.87,15.31-17.74,26.64-34.26,26.64ZM81.01,47.49c-19.11-4-34.96-10.07-49.4-20.16-2.86,7-12.3,17.09-19.81,19.69-.44-2.23-.67-4.53-.67-6.88C11.13,20.63,26.94,4.81,46.45,4.81s35.33,15.82,35.33,35.33c0,2.52-.26,4.98-.77,7.35Z"/>
    <path d="M60.45,36.02c-3.51-.66-6.91-2.4-9.53-4.76-.48-.45-1.27-.36-1.64.19-.34.5-.21,1.17.28,1.51,3.24,2.17,6.96,3.47,10.82,3.66.37.02.42-.55.06-.6Z"/>
  </g>
  <g>
    <path d="M118.18,15.76h6.8v49.79h-6.8V15.76Z"/>
    <path d="M172.86,40.65l28.13,24.89h-10.04l-25.39-21.74h-13.19v21.74h-6.8V15.76h6.8v21.41h14.35l24.98-21.41h9.62l-28.46,24.89Z"/>
    <path d="M212.94,15.76h6.8v49.79h-6.8V15.76Z"/>
    <path d="M301.64,39.24v26.3h-5.48l-1.08-8.8v-.25c-4.07,6.47-12.28,9.88-26.55,9.88-24.15,0-31.86-10.7-31.86-24.56v-2.49c0-13.86,8.71-24.56,32.86-24.56,22.57,0,30.45,9.54,31.12,18.25h-7.39c-.91-5.48-6.89-11.62-23.73-11.62-18.25,0-25.89,6.8-25.89,17.92v2.49c0,11.12,6.56,17.92,24.89,17.92,15.35,0,23.65-4.31,25.81-14.44h-22.32v-6.06h29.62Z"/>
    <path d="M358.72,56.17h-36.59l-5.14,9.38h-7.8l27.38-49.7-.08-.08h7.88v.08l27.3,49.7h-7.8l-5.14-9.38ZM355.07,49.53l-14.6-26.64-14.69,26.64h29.29Z"/>
    <path d="M382.36,15.76h6.8v49.79h-6.8V15.76Z"/>
    <path d="M495.21,15.76l-27.38,49.79h-8.05l-27.38-49.79h8.05l23.57,42.82,23.57-42.82h7.63Z"/>
    <path d="M505.41,15.76h6.8v49.79h-6.8V15.76Z"/>
    <path d="M539.51,59.24h41.49v6.31h-48.29V15.76h6.8v43.48Z"/>
    <path d="M601.33,59.24h41.49v6.31h-48.29V15.76h6.8v43.48Z"/>
    <path d="M696.08,56.17h-36.59l-5.14,9.38h-7.8l27.38-49.7-.08-.08h7.88v.08l27.3,49.7h-7.8l-5.14-9.38ZM692.43,49.53l-14.6-26.64-14.69,26.64h29.29Z"/>
  </g>
</svg>