<?xml version="1.0" encoding="UTF-8"?>
<svg id="Layer_1" xmlns="http://www.w3.org/2000/svg" version="1.1" viewBox="0 0 770.95 730.39">
  <!-- Generator: Adobe Illustrator 29.6.1, SVG Export Plug-In . SVG Version: 2.1.1 Build 9)  -->
  <defs>
    <style>
      .st0 {
        font-family: FONTSPRINGDEMO-BDSansExtRegBold, 'FONTSPRING DEMO - BDSans ExtReg';
        font-size: 217.69px;
        font-weight: 700;
      }

      .st1 {
        fill: #d11e0f;
      }
    </style>
  </defs>
  <g>
    <circle class="st1" cx="452.48" cy="265.49" r="236.33"/>
    <g>
      <path d="M327.14,28.57c-135.09,0-245,105.26-245,234.6,0,16.47,1.81,32.48,5.17,47.98.58,2.78,1.23,5.55,2,8.27,26.35,102.29,123.02,178.29,237.83,178.29s214.71-78.65,239.12-183.52c3.81-16.4,5.81-33.51,5.81-51.01,0-129.34-109.84-234.6-244.93-234.6ZM325.79,491.25c-108.1,0-198.63-75.17-222.14-176.1,51.53-17.56,94.67-58.38,134.19-114.49,89.76,54.57,191.27,94.34,309.19,118.56-24.99,98.86-114.56,172.03-221.23,172.03ZM548.96,310.64c-123.4-25.83-225.76-65.03-319-130.18-18.47,45.2-79.43,110.36-127.92,127.15-2.84-14.4-4.33-29.25-4.33-44.43,0-125.99,102.09-228.14,228.08-228.14s228.14,102.16,228.14,228.14c0,16.27-1.68,32.16-4.97,47.46Z"/>
      <path d="M416.19,236.54c-22.64-4.27-44.62-15.51-61.53-30.74-3.1-2.9-8.2-2.33-10.57,1.2-2.19,3.2-1.37,7.58,1.84,9.77,20.91,14,44.94,22.4,69.86,23.66,2.36.14,2.74-3.53.4-3.88Z"/>
    </g>
  </g>
  <text class="st0" transform="translate(3 712.99)"><tspan x="0" y="0">IKIGAI</tspan></text>
</svg>